<?xml version="1.0" encoding="UTF-8" standalone="no"?>
<svg xmlns:rdf="http://www.w3.org/1999/02/22-rdf-syntax-ns#" xmlns="http://www.w3.org/2000/svg" xml:space="preserve" height="62.755" viewBox="0 0 69.399002 62.754848" width="69.399" version="1.1" enable-background="new 0 0 100 100" y="0px" x="0px" xmlns:cc="http://creativecommons.org/ns#" xmlns:dc="http://purl.org/dc/elements/1.1/">
<rect id="bgColor" height="100" width="100" y="-16.928" x="-8.091" fill="none"/>
<path id="bgColor00" d="m20.539 52.358c-0.966 1.672-1.157 3.369-0.428 3.791 0.729 0.42 2.102-0.596 3.069-2.268 0.965-1.672 13.555-26.521 13.555-26.521s-15.23 23.326-16.196 24.998zm10.272 5.813c-1.193 2.066-1.568 4.086-0.84 4.506 0.729 0.422 2.287-0.914 3.48-2.982 1.195-2.066 17.069-32.607 17.069-32.607s-18.516 29.016-19.709 31.083zm1.154-5.746c0.719-1.244 9.753-19.938 9.753-19.938s-11.675 17.168-12.393 18.412c-0.719 1.246-0.711 2.596 0.02 3.018 0.728 0.42 1.901-0.248 2.62-1.492zm10.335-1.516c-0.715 1.24-0.703 2.586 0.025 3.008 0.729 0.42 1.9-0.244 2.615-1.482 0.717-1.24 9.705-19.855 9.705-19.855s-11.628 17.091-12.345 18.329zm7.834 0.199c0.455 0.262 1.039 0.105 1.303-0.35 0.262-0.455 3.227-7.498 3.227-7.498s-4.615 6.09-4.879 6.545c-0.262 0.455-0.108 1.039 0.349 1.303zm9.628-31.681c-0.645 0-1.268 0.085-1.879 0.206 0.149-0.903 0.234-1.827 0.234-2.771-0.002-9.311-7.549-16.86-16.862-16.862-3.159 0.001-6.107 0.879-8.632 2.391h-12.779v2.387h9.677c-0.567 0.552-1.093 1.144-1.579 1.771h-4.82v2.388h3.272c-0.479 0.899-0.89 1.84-1.203 2.827-3.407 0.413-6.42 2.094-8.562 4.552h-5.242v2.39h3.583c-0.221 0.404-0.424 0.818-0.604 1.246h-11.994v2.391h11.243c-0.136 0.634-0.225 1.283-0.268 1.946h-5.044v2.389h5.092c0.188 1.695 0.687 3.296 1.46 4.741h-14.855v2.388h16.513c0.601 0.694 1.277 1.327 2.019 1.894h-7.809v3.001h15.961v-0.044c0.023 0.001 0.045 0.005 0.068 0.007l1.479-2.957h-1.398c-5.814-0.011-10.517-4.713-10.528-10.527 0.011-5.81 4.713-10.515 10.528-10.525 3.794-0.055 9.187 3.312 10.797 4.303l1.52-2.586c-1.434-0.802-6.055-3.946-10.787-4.592 2.029-5.135 7.031-8.779 12.892-8.777 7.655 0.014 13.847 6.207 13.863 13.862-0.002 3.333-1.172 6.378-3.126 8.771l2.321 1.899c1.087-1.328 1.964-2.835 2.608-4.458 0.861-0.409 1.816-0.647 2.841-0.647 3.665 0.007 6.632 2.974 6.639 6.639-0.007 3.653-2.997 6.575-6.614 6.582l-3.527 0.021-1.937 3.005 5.47-0.026c5.25 0 9.602-4.244 9.606-9.581 0-5.326-4.315-9.642-9.637-9.644z"/>
</svg>
