<?xml version="1.0" encoding="UTF-8" standalone="no"?>
<svg xmlns:rdf="http://www.w3.org/1999/02/22-rdf-syntax-ns#" xmlns="http://www.w3.org/2000/svg" xml:space="preserve" height="49.992" viewBox="0 0 44.321999 49.992001" width="44.322" version="1.1" enable-background="new 0 0 100 100" y="0px" x="0px" xmlns:cc="http://creativecommons.org/ns#" xmlns:dc="http://purl.org/dc/elements/1.1/">
<path id="bgColor00" d="m44.322 9.018v-1.131h-12.117v-3.25c0-2.555-2.096-4.637-4.672-4.637-2.57 0-4.668 2.082-4.668 4.637l0.016 33.898c-1.254 1.232-2.016 3.012-2.016 4.789 0 3.688 2.996 6.668 6.668 6.668s6.668-2.98 6.668-6.668c0-1.777-0.762-3.557-2.012-4.789l0.012-12.508h4.742v-1.135h-4.742l0.004-4.533h4.738v-1.135h-4.738v-4.535h4.738v-1.135h-4.738v-4.537h12.117zm-14.793 15.979h-3.992v-20.324c0-1.102 0.914-1.996 1.996-1.996 1.086 0 1.996 0.895 1.996 1.996v20.324zm-15.399-14.09-5.073 2.929v-5.857h-2.656v5.856l-5.072-2.928-1.329 2.303 5.071 2.928-5.071 2.928 1.329 2.304 5.072-2.929v5.854h2.656v-5.855l5.073 2.93 1.329-2.304-5.07-2.928 5.07-2.928-1.329-2.303z"/>
<rect id="bgColor" height="100" width="100" y="-25.003" x="-27.839" fill="none"/>
</svg>
