<?xml version="1.0" encoding="UTF-8" standalone="no"?>
<svg xmlns="http://www.w3.org/2000/svg" xml:space="preserve" height="30.832" width="73.066" version="1.1" viewBox="0 0 73.066 30.832">
<path id="bgColor00" fill="#f00" d="m0.505 30.253v-12.978l0.421-0.012c21.563-0.587 46.905-1.326 50.201-1.565l-0.002-0.712c-2.706-0.195-20.751-0.761-50.199-1.568l-0.421-0.013v-12.976l0.499 0.079c22.801 3.578 67.234 11.017 71.409 12.432l0.295 0.098v0.311l0.002 3.992v0.312l-0.295 0.098c-4.177 1.413-48.611 8.85-71.412 12.425l-0.498 0.077z"/>
<path fill="#fff" d="m72.279 17.341c-3.941 1.332-46.683 8.537-71.341 12.406v-12.052c20.017-0.543 50.012-1.406 50.621-1.609l-0.002-1.482c-0.607-0.209-30.604-1.066-50.619-1.617v-12.052c24.659 3.871 67.399 11.08 71.338 12.412l0.003 3.994m0.863 0.619v-0.62l-0.002-3.994v-0.619l-0.587-0.198c-4.197-1.418-48.665-8.866-71.48-12.448l-0.998-0.156v13.901l0.84 0.023c26.28 0.724 43.495 1.252 48.782 1.494-6.162 0.281-27.76 0.918-48.782 1.488l-0.84 0.022v13.904l0.997-0.155c22.815-3.58 67.285-11.025 71.482-12.443l0.588-0.199z"/>
<path fill="#fff" d="m51.558 14.603c-0.607-0.209-30.604-1.066-50.619-1.617v4.709c20.017-0.543 50.012-1.406 50.621-1.609l-0.002-1.483z"/>
</svg>
