<?xml version="1.0" encoding="UTF-8" standalone="no"?>
<svg xmlns="http://www.w3.org/2000/svg" xml:space="preserve" height="886.51" width="279.23" version="1.1" viewBox="0 0 279.229 886.511">
	<path opacity=".05" fill="#333" d="m265.69 819.43c0 29.529-23.979 53.551-53.45 53.551h-145.25c-29.479 0-53.459-24.021-53.459-53.551v-752.34c0-29.529 23.979-53.555 53.459-53.555h145.25c29.475 0 53.45 24.025 53.45 53.555l0.003 752.34zm-53.45-819.43h-145.25c-36.941 0-66.99 30.093-66.99 67.086v752.34c0 36.992 30.049 67.084 66.986 67.084h145.25c36.94 0 66.99-30.092 66.99-67.084v-752.34c0-36.997-30.05-67.09-66.99-67.09z"/>
	<path opacity="0.24" fill="#292929" d="m265.69 819.43c0 29.529-23.979 53.551-53.45 53.551h-145.25c-29.479 0-53.459-24.021-53.459-53.551v-752.34c0-29.529 23.979-53.555 53.459-53.555h145.25c29.475 0 53.45 24.025 53.45 53.555l0.003 752.34zm-53.45-817.52h-145.25c-35.888 0-65.08 29.236-65.08 65.176v752.34c0 35.938 29.189 65.172 65.076 65.172h145.25c35.89 0 65.079-29.232 65.079-65.172v-752.34c0-35.944-29.2-65.18-65.08-65.18z"/>
	<path opacity="0.43" fill="#1f1f1f" d="m265.69 819.43c0 29.529-23.979 53.551-53.45 53.551h-145.25c-29.479 0-53.459-24.021-53.459-53.551v-752.34c0-29.529 23.979-53.555 53.459-53.555h145.25c29.475 0 53.45 24.025 53.45 53.555l0.003 752.34zm-53.45-815.61h-145.25c-34.834 0-63.169 28.378-63.169 63.265v752.34c0 34.883 28.334 63.264 63.168 63.264h145.25c34.832 0 63.171-28.381 63.171-63.264v-752.34c0-34.891-28.34-63.269-63.17-63.269z"/>
	<path opacity="0.62" fill="#141414" d="m265.69 819.43c0 29.529-23.979 53.551-53.45 53.551h-145.25c-29.479 0-53.459-24.021-53.459-53.551v-752.34c0-29.529 23.979-53.555 53.459-53.555h145.25c29.475 0 53.45 24.025 53.45 53.555l0.003 752.34zm-53.45-813.7h-145.25c-33.778 0-61.259 27.522-61.259 61.355v752.34c0 33.83 27.479 61.352 61.258 61.352h145.25c33.778 0 61.261-27.521 61.261-61.352v-752.34c0-33.837-27.48-61.359-61.26-61.359z"/>
	<path opacity="0.81" fill="#0a0a0a" d="m265.69 819.43c0 29.529-23.979 53.551-53.45 53.551h-145.25c-29.479 0-53.459-24.021-53.459-53.551v-752.34c0-29.529 23.979-53.555 53.459-53.555h145.25c29.475 0 53.45 24.025 53.45 53.555l0.003 752.34zm-53.45-811.79h-145.25c-32.728 0-59.348 26.665-59.348 59.444v752.34c0 32.775 26.621 59.441 59.347 59.441h145.25c32.727 0 59.35-26.666 59.35-59.441v-752.34c-0.01-32.784-26.63-59.448-59.35-59.448z"/>
	<path d="m265.69 819.43c0 29.529-23.979 53.551-53.45 53.551h-145.25c-29.479 0-53.459-24.021-53.459-53.551v-752.34c0-29.529 23.979-53.555 53.459-53.555h145.25c29.475 0 53.45 24.025 53.45 53.555l0.003 752.34zm-53.45-809.88h-145.25c-31.674 0-57.438 25.808-57.438 57.534v752.34c0 31.721 25.764 57.529 57.437 57.529h145.25c31.673 0 57.438-25.813 57.438-57.529v-752.34c-0.01-31.731-25.77-57.538-57.44-57.538z"/>
<linearGradient id="path42_1_" y2="446.58" gradientUnits="userSpaceOnUse" x2="287.68" gradientTransform="matrix(1 0 0 -1 -18 887.02)" y1="446.58" x1="27.552">
	<stop offset="0"/>
	<stop stop-color="#191919" offset=".36180"/>
	<stop stop-color="#2c2c2c" offset=".7392"/>
	<stop stop-color="#333" offset="1"/>
</linearGradient>
<path fill="url(#path42_1_)" d="m66.989 6.742c-31.673 0-57.437 25.81-57.437 57.531v752.34c0 31.723 25.764 57.533 57.437 57.533h145.25c31.673 0 57.438-25.811 57.438-57.533v-752.34c0-31.719-25.77-57.528-57.44-57.528h-145.25z"/>
<linearGradient id="path67_1_" y2="774.92" gradientUnits="userSpaceOnUse" x2="151.61" gradientTransform="translate(-12 95.511)" y1="-89.142" x1="151.61">
	<stop stop-color="#fff" offset="0"/>
	<stop stop-color="#fbfbfb" offset=".1411"/>
	<stop stop-color="#f0f0f0" offset="0.276"/>
	<stop stop-color="#dcdcdc" offset=".4084"/>
	<stop stop-color="#c1c1c1" offset=".53930"/>
	<stop stop-color="#9f9f9f" offset=".66780"/>
	<stop stop-color="#868686" offset=".74590"/>
	<stop offset="1"/>
</linearGradient>
<path fill="url(#path67_1_)" d="m66.989 10.725c-29.478 0-53.454 24.023-53.454 53.553v752.34c0 29.525 23.979 53.553 53.454 53.553h145.25c29.479 0 53.455-24.025 53.455-53.553v-752.34c0-29.529-23.979-53.553-53.455-53.553l-145.25 0.001z"/>
<linearGradient id="path92_1_" y2="627.16" gradientUnits="userSpaceOnUse" x2="151.61" gradientTransform="translate(-12 95.511)" y1="-81.755" x1="151.61">
	<stop stop-color="#696969" offset="0"/>
	<stop stop-color="#7a7a7a" offset=".14910"/>
	<stop stop-color="#888" offset=".1999"/>
	<stop stop-color="#ababab" offset=".29520"/>
	<stop stop-color="#e5e5e5" offset=".42360"/>
	<stop stop-color="#fff" offset=".47750"/>
	<stop stop-color="#ededed" offset=".5801"/>
	<stop stop-color="#383838" offset=".6067"/>
	<stop stop-color="#141414" offset=".64610"/>
	<stop stop-color="#828282" offset=".73030"/>
	<stop offset=".8933"/>
</linearGradient>
<path fill="url(#path92_1_)" d="m66.989 14.704c-27.277 0-49.478 22.237-49.478 49.569v752.34c0 27.334 22.197 49.568 49.478 49.568h145.25c27.284 0 49.478-22.234 49.478-49.568v-752.34c0-27.332-22.19-49.569-49.478-49.569h-145.25z"/>
<linearGradient id="path94_1_" y2="931.76" gradientUnits="userSpaceOnUse" x2="139.61" y1="723.76" x1="139.61">
	<stop stop-color="#696969" offset="0"/>
	<stop stop-color="#7a7a7a" offset=".14910"/>
	<stop stop-color="#888" offset=".1999"/>
	<stop stop-color="#ababab" offset=".31730"/>
	<stop stop-color="#e5e5e5" offset=".42360"/>
	<stop stop-color="#fff" offset=".47750"/>
	<stop stop-color="#ededed" offset="0.573"/>
	<stop stop-color="#383838" offset=".65510"/>
	<stop stop-color="#141414" offset=".86870"/>
	<stop offset=".9957"/>
</linearGradient>
<path fill="url(#path94_1_)" d="m13.532 816.62c0 29.527 23.979 53.555 53.454 53.555h145.25c29.479 0 53.455-24.027 53.455-53.555v-93.9h-252.17v93.898z"/>
<rect opacity=".25" height="4.898" width="252.16" y="717.82" x="13.532"/>
	<linearGradient id="path100_1_" y2="867.86" gradientUnits="userSpaceOnUse" x2="139.61" y1="663.76" x1="139.61">
		<stop stop-color="#696969" offset="0"/>
		<stop stop-color="#6e6e6e" offset=".1198"/>
		<stop stop-color="#7a7a7a" offset=".2472"/>
		<stop stop-color="#fff" offset=".47750"/>
		<stop stop-color="#ededed" offset="0.573"/>
		<stop stop-color="#383838" offset=".6067"/>
		<stop stop-color="#141414" offset=".64610"/>
		<stop stop-color="#828282" offset=".72930"/>
		<stop stop-color="#727272" offset=".75310"/>
		<stop stop-color="#414141" offset=".83380"/>
		<stop stop-color="#1e1e1e" offset=".9048"/>
		<stop stop-color="#080808" offset=".96260"/>
		<stop offset="1"/>
	</linearGradient>
	<path fill="url(#path100_1_)" d="m16.082 723.4v93.037c0 29.256 23.764 53.061 52.968 53.061h141.13c29.206 0 52.963-23.803 52.963-53.061v-93.04h-247.06zm237.5 93.039c0 27.082-21.99 49.115-49.02 49.115h-129.89c-13.07 0-25.372-5.119-34.644-14.402-9.271-9.289-14.38-21.615-14.38-34.713 0 0 5.614-81.861 5.614-89.094h218.11c0.004 7.231 4.217 89.094 4.217 89.094z"/>
<path opacity="0.12" fill="#fff" d="m135.67 777.64c30.076 0 81.553-4.389 130.02 21.203v-76.12h-252.16v76.129c51.495-21.115 92.06-21.203 122.14-21.203z"/>
		<linearGradient id="SVGID_1_" y2="-60.208" gradientUnits="userSpaceOnUse" x2="151.71" gradientTransform="translate(-12 95.511)" y1="934.25" x1="151.71">
		<stop stop-color="#fff" offset="0"/>
		<stop stop-color="#dcdcdc" offset=".0932"/>
		<stop stop-color="#9a9a9a" offset=".28420"/>
		<stop stop-color="#636363" offset="0.466"/>
		<stop stop-color="#383838" offset=".63350"/>
		<stop stop-color="#191919" offset=".78350"/>
		<stop stop-color="#070707" offset=".91070"/>
		<stop offset="1"/>
	</linearGradient>
	<path fill="url(#SVGID_1_)" d="m223.7 709.33h-167.99c-7.996 0-14.5-6.506-14.5-14.5v-638.96c0-7.995 6.504-14.5 14.5-14.5h167.99c7.993 0 14.5 6.505 14.5 14.5v638.97c0 7.995-6.504 14.5-14.5 14.5zm-165.99-657.96c-5.238 0-9.5 4.262-9.5 9.5v630.97c0 5.238 4.262 9.5 9.5 9.5h163.99c5.236 0 9.5-4.262 9.5-9.5v-630.97c0-5.238-4.264-9.5-9.5-9.5h-163.99z"/>
	<path fill="url(#SVGID_1_)" d="m223.7 709.33h-167.99c-7.996 0-14.5-6.506-14.5-14.5v-638.96c0-7.995 6.504-14.5 14.5-14.5h167.99c7.993 0 14.5 6.505 14.5 14.5v638.97c0 7.995-6.504 14.5-14.5 14.5zm-165.99-657.96c-5.238 0-9.5 4.262-9.5 9.5v630.97c0 5.238 4.262 9.5 9.5 9.5h163.99c5.236 0 9.5-4.262 9.5-9.5v-630.97c0-5.238-4.264-9.5-9.5-9.5h-163.99z"/>
	<path fill="url(#SVGID_1_)" d="m223.7 709.33h-167.99c-7.996 0-14.5-6.506-14.5-14.5v-638.96c0-7.995 6.504-14.5 14.5-14.5h167.99c7.993 0 14.5 6.505 14.5 14.5v638.97c0 7.995-6.504 14.5-14.5 14.5zm-165.99-657.96c-5.238 0-9.5 4.262-9.5 9.5v630.97c0 5.238 4.262 9.5 9.5 9.5h163.99c5.236 0 9.5-4.262 9.5-9.5v-630.97c0-5.238-4.264-9.5-9.5-9.5h-163.99z"/>
<g opacity=".25">
	<path fill="url(#SVGID_1_)" d="m223.7 709.33h-167.99c-7.996 0-14.5-6.506-14.5-14.5v-638.96c0-7.995 6.504-14.5 14.5-14.5h167.99c7.993 0 14.5 6.505 14.5 14.5v638.97c0 7.995-6.504 14.5-14.5 14.5zm-165.99-647.96c-5.238 0-9.5 4.262-9.5 9.5v611.97c0 5.238 4.262 9.5 9.5 9.5h163.99c5.236 0 9.5-4.262 9.5-9.5v-611.97c0-5.238-4.264-9.5-9.5-9.5h-163.99z"/>
</g>
<path id="bgColor00" fill="#fffdfd" d="m54.57 41.903c-5.309 0-9.629 4.319-9.629 9.629v647.64c0 5.309 4.32 9.629 9.629 9.629h170.27c5.31 0 9.629-4.32 9.629-9.629v-647.64c0-5.31-4.319-9.629-9.629-9.629h-170.27z"/>
<g opacity=".05">
	<path fill="url(#SVGID_1_)" d="m223.7 709.33h-167.99c-7.996 0-14.5-6.506-14.5-14.5v-638.96c0-7.995 6.504-14.5 14.5-14.5h167.99c7.993 0 14.5 6.505 14.5 14.5v638.97c0 7.995-6.504 14.5-14.5 14.5zm-155.99-633.96c-5.238 0-9.5 4.262-9.5 9.5v584.97c0 5.238 4.262 9.5 9.5 9.5h143.99c5.236 0 9.5-4.262 9.5-9.5v-584.97c0-5.238-4.264-9.5-9.5-9.5h-146.99 3z"/>
</g>
<g opacity=".1">
	<path fill="url(#SVGID_1_)" d="m223.7 709.33h-167.99c-7.996 0-14.5-6.506-14.5-14.5v-638.96c0-7.995 6.504-14.5 14.5-14.5h167.99c7.993 0 14.5 6.505 14.5 14.5v638.97c0 7.995-6.504 14.5-14.5 14.5zm-159.99-641.96c-5.238 0-9.5 4.262-9.5 9.5v599.97c0 5.238 4.262 9.5 9.5 9.5h151.99c5.236 0 9.5-4.262 9.5-9.5v-599.97c0-5.238-4.264-9.5-9.5-9.5h-154.99 3z"/>
</g>
<g opacity=".25">
	<path fill="url(#SVGID_1_)" d="m223.7 709.33h-167.99c-7.996 0-14.5-6.506-14.5-14.5v-638.96c0-7.995 6.504-14.5 14.5-14.5h167.99c7.993 0 14.5 6.505 14.5 14.5v638.97c0 7.995-6.504 14.5-14.5 14.5zm-162.99-647.96c-5.238 0-9.5 4.262-9.5 9.5v611.97c0 5.238 4.262 9.5 9.5 9.5h157.99c5.236 0 9.5-4.262 9.5-9.5v-611.97c0-5.238-4.264-9.5-9.5-9.5h-160.99 3z"/>
</g>
<g opacity=".5">
	<path fill="url(#SVGID_1_)" d="m223.7 709.33h-167.99c-7.996 0-14.5-6.506-14.5-14.5v-638.96c0-7.995 6.504-14.5 14.5-14.5h167.99c7.993 0 14.5 6.505 14.5 14.5v638.97c0 7.995-6.504 14.5-14.5 14.5zm-165.99-652.96c-5.238 0-9.5 4.262-9.5 9.5v621.97c0 5.238 4.262 9.5 9.5 9.5h163.99c5.236 0 9.5-4.262 9.5-9.5v-621.97c0-5.238-4.264-9.5-9.5-9.5h-163.99z"/>
</g>
		<linearGradient id="SVGID_9_" y2="643.53" gradientUnits="userSpaceOnUse" x2="151.71" gradientTransform="translate(-12 95.511)" y1="-57.645" x1="151.71">
		<stop stop-color="#fff" offset="0"/>
		<stop offset="1"/>
	</linearGradient>
	<path fill="url(#SVGID_9_)" d="m223.7 709.33h-167.99c-7.996 0-14.5-6.506-14.5-14.5v-638.96c0-7.995 6.504-14.5 14.5-14.5h167.99c7.993 0 14.5 6.505 14.5 14.5v638.97c0 7.995-6.504 14.5-14.5 14.5zm-167.99-662.96c-5.238 0-9.5 4.262-9.5 9.5v638.97c0 5.238 4.262 9.5 9.5 9.5h167.99c5.236 0 9.5-4.262 9.5-9.5v-638.97c0-5.238-4.264-9.5-9.5-9.5h-167.99z"/>
	<path fill="url(#SVGID_1_)" d="m223.7 709.33h-167.99c-7.996 0-14.5-6.506-14.5-14.5v-638.96c0-7.995 6.504-14.5 14.5-14.5h167.99c7.993 0 14.5 6.505 14.5 14.5v638.97c0 7.995-6.504 14.5-14.5 14.5zm-165.99-657.96c-5.238 0-9.5 4.262-9.5 9.5v630.97c0 5.238 4.262 9.5 9.5 9.5h163.99c5.236 0 9.5-4.262 9.5-9.5v-630.97c0-5.238-4.264-9.5-9.5-9.5h-163.99z"/>
		<linearGradient id="SVGID_11_" y2="643.53" gradientUnits="userSpaceOnUse" x2="151.71" gradientTransform="translate(-12 95.511)" y1="-57.645" x1="151.71">
		<stop stop-color="#e8e8e8" offset="0.254"/>
		<stop stop-color="#ededed" offset=".4862"/>
		<stop stop-color="#383838" offset=".52490"/>
		<stop stop-color="#141414" offset=".65190"/>
		<stop stop-color="#828282" offset=".7403"/>
		<stop offset=".83430"/>
	</linearGradient>
	<path fill="url(#SVGID_11_)" d="m223.7 709.33h-167.99c-7.996 0-14.5-6.506-14.5-14.5v-638.96c0-7.995 6.504-14.5 14.5-14.5h167.99c7.993 0 14.5 6.505 14.5 14.5v638.97c0 7.995-6.504 14.5-14.5 14.5zm-167.99-662.96c-5.238 0-9.5 4.262-9.5 9.5v638.97c0 5.238 4.262 9.5 9.5 9.5h167.99c5.236 0 9.5-4.262 9.5-9.5v-638.97c0-5.238-4.264-9.5-9.5-9.5h-167.99z"/>
</svg>
