<?xml version="1.0" encoding="UTF-8" standalone="no"?>
<svg xmlns="http://www.w3.org/2000/svg" xml:space="preserve" height="61.29" width="28.17" version="1.1" viewBox="0 0 28.17 61.29">
	<g opacity=".05">
			<linearGradient id="path3112_1_" y2="743.26" gradientUnits="userSpaceOnUse" x2="590.98" gradientTransform="translate(-576.89 -679.05)" y1="673.93" x1="590.98">
			<stop stop-color="#6b6b6b" offset="0"/>
			<stop stop-color="#707070" offset=".2295"/>
			<stop stop-color="#7a7a7a" offset=".43260"/>
			<stop stop-color="#333" offset=".84830"/>
		</linearGradient>
		<path fill="url(#path3112_1_)" d="m4.535 0c-2.767 0-4.535 3.278-4.535 5.534v2.449c0.01 0.254 0.814 17.558 0.814 20.288 0 2.734-0.805 21.766-0.813 21.957l-0.001 5.522c0 2.258 1.768 5.535 4.535 5.535h19.1c2.771 0 4.535-3.277 4.535-5.535v-5.449c-0.006-0.23-0.527-18.172-0.527-21.917 0-3.741 0.521-20.182 0.527-20.348v-2.502c0-2.256-1.768-5.534-4.535-5.534h-19.1z"/>
	</g>
	<g opacity=".1857">
			<linearGradient id="path3125_1_" y2="742.55" gradientUnits="userSpaceOnUse" x2="590.98" gradientTransform="translate(-576.89 -679.05)" y1="674.25" x1="590.98">
			<stop stop-color="#5c5c5c" offset="0"/>
			<stop stop-color="#616161" offset=".25140"/>
			<stop stop-color="#696969" offset=".43260"/>
			<stop stop-color="#2c2c2c" offset=".84830"/>
		</linearGradient>
		<path opacity=".9857" fill="url(#path3125_1_)" d="m4.535 0.243c-2.596 0-4.292 3.134-4.292 5.291v2.449c0.008 0.217 0.816 17.546 0.816 20.288 0 2.744-0.808 21.803-0.814 21.969l-0.001 5.08c0 2.158 1.694 5.291 4.292 5.291h19.1c2.6 0 4.293-3.133 4.293-5.291v-5.02c-0.006-0.197-0.529-18.164-0.529-21.918 0-3.751 0.523-20.212 0.529-20.354v-2.494c0-2.157-1.693-5.291-4.293-5.291h-19.101z"/>
	</g>
	<g opacity=".3214">
			<linearGradient id="path3138_1_" y2="741.83" gradientUnits="userSpaceOnUse" x2="590.98" gradientTransform="translate(-576.89 -679.05)" y1="674.57" x1="590.98">
			<stop stop-color="#4c4c4c" offset="0"/>
			<stop stop-color="#525252" offset=".28010"/>
			<stop stop-color="#575757" offset=".43260"/>
			<stop stop-color="#242424" offset=".84830"/>
		</linearGradient>
		<path opacity=".9714" fill="url(#path3138_1_)" d="m4.535 0.485c-2.424 0-4.049 2.99-4.049 5.049v2.449c0.007 0.18 0.814 17.536 0.814 20.288 0 2.754-0.808 21.84-0.814 21.979v4.643c0 2.061 1.625 5.051 4.049 5.051h19.1c2.428 0 4.051-2.99 4.051-5.051v-4.592c-0.004-0.164-0.529-18.152-0.529-21.917 0-3.761 0.525-20.244 0.529-20.361v-2.489c0-2.059-1.623-5.049-4.051-5.049h-19.1z"/>
	</g>
	<g opacity=".4571">
			<linearGradient id="path3151_1_" y2="741.12" gradientUnits="userSpaceOnUse" x2="590.98" gradientTransform="translate(-576.89 -679.05)" y1="674.89" x1="590.98">
			<stop stop-color="#3d3d3d" offset="0"/>
			<stop stop-color="#424242" offset=".31960"/>
			<stop stop-color="#464646" offset=".43260"/>
			<stop stop-color="#1d1d1d" offset=".84830"/>
		</linearGradient>
		<path opacity=".95710" fill="url(#path3151_1_)" d="m4.535 0.729c-2.252 0-3.807 2.846-3.807 4.807v2.447c0.006 0.145 0.816 17.527 0.816 20.288 0 2.764-0.81 21.877-0.813 21.988v4.203c0 1.961 1.553 4.807 3.806 4.807h19.101c2.254 0 3.807-2.846 3.807-4.807v-4.162c-0.004-0.133-0.529-18.146-0.529-21.918s0.525-20.274 0.529-20.37v-2.478c0-1.959-1.553-4.807-3.807-4.807l-19.103 0.002z"/>
	</g>
	<g opacity=".5929">
			<linearGradient id="path3164_1_" y2="740.4" gradientUnits="userSpaceOnUse" x2="590.98" gradientTransform="translate(-576.89 -679.05)" y1="675.21" x1="590.98">
			<stop stop-color="#2e2e2e" offset="0"/>
			<stop stop-color="#333" offset="0.379"/>
			<stop stop-color="#343434" offset=".43260"/>
			<stop stop-color="#161616" offset=".84830"/>
		</linearGradient>
		<path opacity=".9429" fill="url(#path3164_1_)" d="m4.535 0.972c-2.081 0-3.563 2.702-3.563 4.563v2.449c0.005 0.108 0.815 17.516 0.815 20.287 0 2.772-0.811 21.916-0.814 21.998v3.766c0 1.861 1.481 4.563 3.563 4.563h19.1c2.082 0 3.563-2.701 3.563-4.563v-3.734c-0.004-0.1-0.528-18.133-0.528-21.917 0-3.78 0.524-20.307 0.528-20.378v-2.472c0-1.861-1.48-4.563-3.563-4.563h-19.101z"/>
	</g>
	<g opacity=".7286">
			<linearGradient id="path3175_1_" y2="739.69" gradientUnits="userSpaceOnUse" x2="590.98" gradientTransform="translate(-576.89 -679.05)" y1="675.53" x1="590.98">
			<stop stop-color="#1f1f1f" offset="0"/>
			<stop stop-color="#232323" offset=".43260"/>
			<stop stop-color="#0f0f0f" offset=".84830"/>
		</linearGradient>
		<path opacity=".9286" fill="url(#path3175_1_)" d="m4.535 1.214c-1.909 0-3.32 2.559-3.32 4.32v2.449c0.003 0.073 0.814 17.507 0.814 20.288 0 2.782-0.812 21.955-0.814 22.008v3.326c0 1.766 1.411 4.32 3.32 4.32h19.1c1.91 0 3.32-2.559 3.32-4.32v-3.305c-0.002-0.066-0.529-18.125-0.529-21.918 0-3.792 0.527-20.338 0.529-20.386v-2.462c0-1.762-1.41-4.32-3.32-4.32h-19.1z"/>
	</g>
	<g opacity=".8643">
			<linearGradient id="path3186_1_" y2="738.97" gradientUnits="userSpaceOnUse" x2="590.98" gradientTransform="translate(-576.89 -679.05)" y1="675.84" x1="590.98">
			<stop stop-color="#0f0f0f" offset="0"/>
			<stop stop-color="#111" offset=".43260"/>
			<stop stop-color="#070707" offset=".84830"/>
		</linearGradient>
		<path opacity=".9143" fill="url(#path3186_1_)" d="m4.535 1.458c-1.737 0-3.077 2.414-3.077 4.078v2.447c0.001 0.038 0.813 17.497 0.813 20.288 0 2.793-0.813 21.99-0.813 22.02v2.889c0 1.664 1.34 4.076 3.077 4.076h19.1c1.738 0 3.077-2.412 3.077-4.076v-2.879c-0.001-0.033-0.528-18.113-0.528-21.917 0-3.801 0.527-20.37 0.528-20.395v-2.455c0-1.664-1.339-4.078-3.077-4.078l-19.1 0.002z"/>
	</g>
	<path opacity=".9" d="m23.635 1.7h-19.1c-1.564 0-2.834 2.27-2.834 3.834v2.449s0.814 17.485 0.814 20.288-0.814 22.03-0.814 22.03v2.445c0 1.566 1.27 3.838 2.834 3.838h19.1c1.566 0 2.834-2.271 2.834-3.838v-2.445s-0.527-18.105-0.527-21.918 0.527-20.401 0.527-20.401v-2.448c0-1.564-1.268-3.834-2.834-3.834z"/>
<path id="bgColor00" d="m23.572 1.832h-19.1c-1.564 0-2.834 2.27-2.834 3.834v2.449s0.814 17.485 0.814 20.288c0 2.801-0.814 22.028-0.814 22.028v2.449c0 1.564 1.27 3.834 2.834 3.834h19.1c1.566 0 2.834-2.27 2.834-3.834v-2.449s-0.527-18.104-0.527-21.916 0.527-20.4 0.527-20.4v-2.449c0-1.564-1.265-3.834-2.834-3.834z"/>
<linearGradient id="SVGID_1_" y2="60.749" gradientUnits="userSpaceOnUse" x2="14" y1="-1.4263" x1="14">
	<stop stop-color="#fff" stop-opacity="0.59" offset=".0545"/>
	<stop stop-color="#fff" stop-opacity="0.24" offset=".13940"/>
	<stop stop-color="#fff" stop-opacity=".5" offset=".4364"/>
	<stop stop-color="#fff" stop-opacity=".12" offset=".89090"/>
	<stop stop-color="#fff" stop-opacity="0" offset="1"/>
</linearGradient>
<path fill="url(#SVGID_1_)" d="m26.406 5.666c0-1.564-1.266-3.834-2.834-3.834h-19.1c-1.564 0-2.834 2.27-2.834 3.834v2.449s0.814 17.485 0.814 20.288c0 2.801-0.995 21.997-0.995 21.997l0.082 2.523c0 1.721 1.437 3.865 3.001 3.865h19.094c1.566 0 2.906-2.301 2.906-3.865v-2.493s-0.662-18.102-0.662-21.914 0.527-20.4 0.527-20.4v-2.45zm-0.564 45.988c0 0.824-0.363 1.27-2.269 1.27h-19.1c-1.906 0-2.268-0.447-2.268-1.27 0 0 0.553-19.354 0.553-22.941s-0.554-21.823-0.554-21.823c0-0.822 0.362-1.268 2.269-1.268h19.101c1.908 0 2.269 0.445 2.269 1.268 0 0-0.666 17.676-0.666 21.487-0.001 3.811 0.665 23.277 0.665 23.277z"/>
<linearGradient id="path3222_1_" y2="749.61" gradientUnits="userSpaceOnUse" x2="590.92" gradientTransform="translate(-576.89 -679.05)" y1="675.39" x1="590.92">
	<stop stop-color="#fff" stop-opacity="0" offset="0"/>
	<stop stop-color="#fff" stop-opacity="0.7" offset="1"/>
</linearGradient>
<path fill="url(#path3222_1_)" d="m4.472 5.622c-1.906 0-2.269 0.445-2.269 1.268 0 0 0.554 18.235 0.554 21.823s-0.553 22.941-0.553 22.941c0 0.822 0.361 1.27 2.268 1.27h19.101c1.905 0 2.269-0.445 2.269-1.27 0 0-0.666-19.467-0.666-23.277 0-3.812 0.666-21.487 0.666-21.487 0-0.822-0.36-1.268-2.269-1.268h-19.101z"/>
<rect id="bgColor00_2_" height="1.713" width="21.131" y="28.447" x="3.453" fill="#f00"/>
<polygon opacity="0.27" points="3.815 29.402 24.148 29.402 24.556 30.227 3.365 30.227" fill="#707070"/>
<g fill="#fff">
	<polygon opacity=".15" points="24.789 6.976 3.334 6.976 2.84 6.413 25.266 6.413"/>
	<polygon opacity=".25" points="25.266 7.601 2.84 7.601 2.84 6.413 3.334 6.976 24.789 6.976 25.266 6.413"/>
</g>
<g fill="#fff">
	<polygon opacity=".15" points="24.639 9.603 3.518 9.603 3.031 8.985 25.107 8.985"/>
	<polygon opacity=".25" points="25.107 10.288 3.031 10.288 3.031 8.985 3.518 9.603 24.639 9.603 25.107 8.985"/>
</g>
<g fill="#fff">
	<polygon opacity=".15" points="24.552 12.378 3.55 12.378 3.066 11.745 25.018 11.745"/>
	<polygon opacity=".25" points="25.018 13.081 3.066 13.081 3.066 11.745 3.55 12.378 24.552 12.378 25.018 11.745"/>
</g>
<g fill="#fff">
	<polygon opacity=".15" points="24.597 15.453 3.592 15.453 3.108 14.697 25.063 14.697"/>
	<polygon opacity=".25" points="25.063 16.292 3.108 16.292 3.108 14.697 3.592 15.453 24.597 15.453 25.063 14.697"/>
</g>
<g fill="#fff">
	<polygon opacity=".15" points="24.419 19.007 3.606 19.007 3.128 18.207 24.881 18.207"/>
	<polygon opacity=".25" points="24.881 19.894 3.128 19.894 3.128 18.207 3.606 19.007 24.419 19.007 24.881 18.207"/>
</g>
<g fill="#fff">
	<polygon opacity=".15" points="24.162 26.813 3.902 26.813 3.437 26.013 24.611 26.013"/>
	<polygon opacity=".25" points="24.611 27.699 3.437 27.699 3.437 26.013 3.902 26.813 24.162 26.813 24.611 26.013"/>
</g>
<polygon opacity=".1" points="24.157 31.923 3.897 31.923 3.432 31.087 24.606 31.087" fill="#020202"/>
<polygon opacity=".25" points="24.606 32.852 3.432 32.852 3.432 31.087 3.897 31.923 24.157 31.923 24.606 31.087" fill="#fff"/>
<polygon opacity=".1" points="24.291 35.662 3.772 35.662 3.301 34.826 24.746 34.826" fill="#020202"/>
<polygon opacity=".25" points="24.746 36.59 3.301 36.59 3.301 34.826 3.772 35.662 24.291 35.662 24.746 34.826" fill="#fff"/>
<polygon opacity=".15" points="24.452 39.42 3.618 39.42 3.14 38.584 24.914 38.584" fill="#020202"/>
<polygon opacity=".25" points="24.914 40.348 3.14 40.348 3.14 38.584 3.618 39.42 24.452 39.42 24.914 38.584" fill="#fff"/>
<polygon opacity=".35" points="24.438 42.99 3.441 42.99 2.959 42.24 24.904 42.24" fill="#020202"/>
<polygon opacity=".35" points="24.904 43.824 2.959 43.824 2.959 42.24 3.441 42.99 24.438 42.99 24.904 42.24" fill="#fff"/>
<polygon opacity=".35" points="24.498 46.045 3.501 46.045 3.019 45.377 24.964 45.377" fill="#020202"/>
<polygon opacity=".35" points="24.964 46.787 3.019 46.787 3.019 45.377 3.501 46.045 24.498 46.045 24.964 45.377" fill="#fff"/>
<polygon opacity=".35" points="24.532 48.838 3.443 48.838 2.959 48.203 25 48.203" fill="#020202"/>
<polygon opacity=".4" points="25 49.543 2.959 49.543 2.959 48.203 3.443 48.838 24.532 48.838 25 48.203" fill="#fff"/>
<polygon opacity=".35" points="24.706 51.498 3.271 51.498 2.778 50.936 25.182 50.936" fill="#020202"/>
<polygon opacity=".4" points="25.182 52.121 2.778 52.121 2.778 50.936 3.271 51.498 24.706 51.498 25.182 50.936" fill="#fff"/>
<g fill="#fff">
	<polygon opacity=".15" points="24.247 22.766 3.7 22.766 3.228 21.93 24.703 21.93"/>
	<polygon opacity=".25" points="24.703 23.693 3.228 23.693 3.228 21.93 3.7 22.766 24.247 22.766 24.703 21.93"/>
</g>
</svg>
